solid OpenSCAD_Model
  facet normal 0 1 -0
    outer loop
      vertex 19 47 -5.4
      vertex -19 47 0
      vertex 19 47 0
    endloop
  endfacet
  facet normal 0 1 0
    outer loop
      vertex -19 47 0
      vertex 19 47 -5.4
      vertex -19 47 -5.4
    endloop
  endfacet
  facet normal 0.290271 -0.956944 0
    outer loop
      vertex 19.3902 5.03843 -5.4
      vertex 19.7654 5.15224 0
      vertex 19.3902 5.03843 0
    endloop
  endfacet
  facet normal 0.290271 -0.956944 0
    outer loop
      vertex 19.7654 5.15224 0
      vertex 19.3902 5.03843 -5.4
      vertex 19.7654 5.15224 -5.4
    endloop
  endfacet
  facet normal 0.77307 0.634321 0
    outer loop
      vertex 20.6629 46.1111 0
      vertex 20.4142 46.4142 -5.4
      vertex 20.4142 46.4142 0
    endloop
  endfacet
  facet normal 0.77307 0.634321 0
    outer loop
      vertex 20.4142 46.4142 -5.4
      vertex 20.6629 46.1111 0
      vertex 20.6629 46.1111 -5.4
    endloop
  endfacet
  facet normal 0 0 -1
    outer loop
      vertex 19 5 -5.4
      vertex 21 7 -5.4
      vertex 20.9616 6.60982 -5.4
    endloop
  endfacet
  facet normal 0 0 -1
    outer loop
      vertex 21 7 -5.4
      vertex 16.8682 11.5911 -5.4
      vertex 21 45 -5.4
    endloop
  endfacet
  facet normal 0 0 -1
    outer loop
      vertex 19 5 -5.4
      vertex 20.9616 6.60982 -5.4
      vertex 20.8478 6.23463 -5.4
    endloop
  endfacet
  facet normal 0 0 -1
    outer loop
      vertex 21 7 -5.4
      vertex 17.0767 11.2593 -5.4
      vertex 16.8682 11.5911 -5.4
    endloop
  endfacet
  facet normal 0 0 -1
    outer loop
      vertex 19 5 -5.4
      vertex 20.8478 6.23463 -5.4
      vertex 20.6629 5.88886 -5.4
    endloop
  endfacet
  facet normal 0 0 -1
    outer loop
      vertex 16.5911 11.8682 -5.4
      vertex 21 45 -5.4
      vertex 16.8682 11.5911 -5.4
    endloop
  endfacet
  facet normal 0 0 -1
    outer loop
      vertex 19 5 -5.4
      vertex 20.6629 5.88886 -5.4
      vertex 20.4142 5.58579 -5.4
    endloop
  endfacet
  facet normal 0 0 -1
    outer loop
      vertex 16.2593 12.0767 -5.4
      vertex 21 45 -5.4
      vertex 16.5911 11.8682 -5.4
    endloop
  endfacet
  facet normal 0 0 -1
    outer loop
      vertex 19 5 -5.4
      vertex 20.4142 5.58579 -5.4
      vertex 20.1111 5.33706 -5.4
    endloop
  endfacet
  facet normal 0 0 -1
    outer loop
      vertex 15.8894 12.2061 -5.4
      vertex 21 45 -5.4
      vertex 16.2593 12.0767 -5.4
    endloop
  endfacet
  facet normal 0 0 -1
    outer loop
      vertex 19 5 -5.4
      vertex 20.1111 5.33706 -5.4
      vertex 19.7654 5.15224 -5.4
    endloop
  endfacet
  facet normal 0 0 -1
    outer loop
      vertex 21 7 -5.4
      vertex 17.2061 10.8894 -5.4
      vertex 17.0767 11.2593 -5.4
    endloop
  endfacet
  facet normal 0 0 -1
    outer loop
      vertex 19 5 -5.4
      vertex 19.7654 5.15224 -5.4
      vertex 19.3902 5.03843 -5.4
    endloop
  endfacet
  facet normal 0 0 -1
    outer loop
      vertex 15.5 12.25 -5.4
      vertex 21 45 -5.4
      vertex 15.8894 12.2061 -5.4
    endloop
  endfacet
  facet normal -0 0 -1
    outer loop
      vertex 21 7 -5.4
      vertex 19 5 -5.4
      vertex 16.8682 9.40889 -5.4
    endloop
  endfacet
  facet normal 0 0 -1
    outer loop
      vertex 15.1106 12.2061 -5.4
      vertex 21 45 -5.4
      vertex 15.5 12.25 -5.4
    endloop
  endfacet
  facet normal 0 0 -1
    outer loop
      vertex 21 7 -5.4
      vertex 17.25 10.5 -5.4
      vertex 17.2061 10.8894 -5.4
    endloop
  endfacet
  facet normal 0 0 -1
    outer loop
      vertex 21 7 -5.4
      vertex 17.2061 10.1106 -5.4
      vertex 17.25 10.5 -5.4
    endloop
  endfacet
  facet normal 0 0 -1
    outer loop
      vertex 21 7 -5.4
      vertex 17.0767 9.7407 -5.4
      vertex 17.2061 10.1106 -5.4
    endloop
  endfacet
  facet normal 0 0 -1
    outer loop
      vertex 21 7 -5.4
      vertex 16.8682 9.40889 -5.4
      vertex 17.0767 9.7407 -5.4
    endloop
  endfacet
  facet normal 0 0 -1
    outer loop
      vertex 19 5 -5.4
      vertex 16.5911 9.13179 -5.4
      vertex 16.8682 9.40889 -5.4
    endloop
  endfacet
  facet normal 0 0 -1
    outer loop
      vertex 19 5 -5.4
      vertex 16.2593 8.9233 -5.4
      vertex 16.5911 9.13179 -5.4
    endloop
  endfacet
  facet normal 0 0 -1
    outer loop
      vertex 19 5 -5.4
      vertex 15.8894 8.79388 -5.4
      vertex 16.2593 8.9233 -5.4
    endloop
  endfacet
  facet normal 0 0 -1
    outer loop
      vertex 19 5 -5.4
      vertex 15.5 8.75 -5.4
      vertex 15.8894 8.79388 -5.4
    endloop
  endfacet
  facet normal 0 0 -1
    outer loop
      vertex 19 5 -5.4
      vertex 15.1106 8.79388 -5.4
      vertex 15.5 8.75 -5.4
    endloop
  endfacet
  facet normal 0 0 -1
    outer loop
      vertex 19 5 -5.4
      vertex 14.7407 8.9233 -5.4
      vertex 15.1106 8.79388 -5.4
    endloop
  endfacet
  facet normal 0 0 -1
    outer loop
      vertex 19 5 -5.4
      vertex 14.4089 9.13179 -5.4
      vertex 14.7407 8.9233 -5.4
    endloop
  endfacet
  facet normal 0 0 -1
    outer loop
      vertex 13.7939 10.1106 -5.4
      vertex -13.75 10.5 -5.4
      vertex 13.75 10.5 -5.4
    endloop
  endfacet
  facet normal 0 0 -1
    outer loop
      vertex -13.7939 10.1106 -5.4
      vertex 13.7939 10.1106 -5.4
      vertex 13.9233 9.7407 -5.4
    endloop
  endfacet
  facet normal 0 0 -1
    outer loop
      vertex -13.9233 9.7407 -5.4
      vertex 13.9233 9.7407 -5.4
      vertex 14.1318 9.40889 -5.4
    endloop
  endfacet
  facet normal 0 0 -1
    outer loop
      vertex -14.1318 9.40889 -5.4
      vertex 14.1318 9.40889 -5.4
      vertex 14.4089 9.13179 -5.4
    endloop
  endfacet
  facet normal 0 0 -1
    outer loop
      vertex -14.4089 9.13179 -5.4
      vertex 14.4089 9.13179 -5.4
      vertex 19 5 -5.4
    endloop
  endfacet
  facet normal 0 0 -1
    outer loop
      vertex 13.7939 10.1106 -5.4
      vertex -13.7939 10.1106 -5.4
      vertex -13.75 10.5 -5.4
    endloop
  endfacet
  facet normal 0 0 -1
    outer loop
      vertex 13.9233 9.7407 -5.4
      vertex -13.9233 9.7407 -5.4
      vertex -13.7939 10.1106 -5.4
    endloop
  endfacet
  facet normal 0 0 -1
    outer loop
      vertex 14.1318 9.40889 -5.4
      vertex -14.1318 9.40889 -5.4
      vertex -13.9233 9.7407 -5.4
    endloop
  endfacet
  facet normal 0 0 -1
    outer loop
      vertex 14.4089 9.13179 -5.4
      vertex -14.4089 9.13179 -5.4
      vertex -14.1318 9.40889 -5.4
    endloop
  endfacet
  facet normal 0 0 -1
    outer loop
      vertex -19 5 -5.4
      vertex -14.4089 9.13179 -5.4
      vertex 19 5 -5.4
    endloop
  endfacet
  facet normal 0 0 -1
    outer loop
      vertex -14.4089 9.13179 -5.4
      vertex -19 5 -5.4
      vertex -14.7407 8.9233 -5.4
    endloop
  endfacet
  facet normal 0 0 -1
    outer loop
      vertex -14.7407 8.9233 -5.4
      vertex -19 5 -5.4
      vertex -15.1106 8.79388 -5.4
    endloop
  endfacet
  facet normal -0 0 -1
    outer loop
      vertex -17.0767 9.7407 -5.4
      vertex -21 7 -5.4
      vertex -17.2061 10.1106 -5.4
    endloop
  endfacet
  facet normal -0 0 -1
    outer loop
      vertex -16.8682 9.40889 -5.4
      vertex -21 7 -5.4
      vertex -17.0767 9.7407 -5.4
    endloop
  endfacet
  facet normal 0 0 -1
    outer loop
      vertex -21 7 -5.4
      vertex -16.8682 9.40889 -5.4
      vertex -19 5 -5.4
    endloop
  endfacet
  facet normal -0 0 -1
    outer loop
      vertex -16.5911 9.13179 -5.4
      vertex -19 5 -5.4
      vertex -16.8682 9.40889 -5.4
    endloop
  endfacet
  facet normal -0 0 -1
    outer loop
      vertex -16.2593 8.9233 -5.4
      vertex -19 5 -5.4
      vertex -16.5911 9.13179 -5.4
    endloop
  endfacet
  facet normal -0 0 -1
    outer loop
      vertex -15.8894 8.79388 -5.4
      vertex -19 5 -5.4
      vertex -16.2593 8.9233 -5.4
    endloop
  endfacet
  facet normal -0 0 -1
    outer loop
      vertex -15.5 8.75 -5.4
      vertex -19 5 -5.4
      vertex -15.8894 8.79388 -5.4
    endloop
  endfacet
  facet normal 0 0 -1
    outer loop
      vertex -15.1106 8.79388 -5.4
      vertex -19 5 -5.4
      vertex -15.5 8.75 -5.4
    endloop
  endfacet
  facet normal 0 0 -1
    outer loop
      vertex 14.7407 12.0767 -5.4
      vertex 21 45 -5.4
      vertex 15.1106 12.2061 -5.4
    endloop
  endfacet
  facet normal 0 -0 -1
    outer loop
      vertex 19 47 -5.4
      vertex 21 45 -5.4
      vertex 14.7407 12.0767 -5.4
    endloop
  endfacet
  facet normal 0 0 -1
    outer loop
      vertex 20.9616 45.3902 -5.4
      vertex 19 47 -5.4
      vertex 20.8478 45.7654 -5.4
    endloop
  endfacet
  facet normal 0 0 -1
    outer loop
      vertex 20.8478 45.7654 -5.4
      vertex 19 47 -5.4
      vertex 20.6629 46.1111 -5.4
    endloop
  endfacet
  facet normal 0 0 -1
    outer loop
      vertex 20.4142 46.4142 -5.4
      vertex 19 47 -5.4
      vertex 20.1111 46.6629 -5.4
    endloop
  endfacet
  facet normal 0 0 -1
    outer loop
      vertex 19.7654 46.8478 -5.4
      vertex 19 47 -5.4
      vertex 19.3902 46.9616 -5.4
    endloop
  endfacet
  facet normal 0 0 -1
    outer loop
      vertex 20.1111 46.6629 -5.4
      vertex 19 47 -5.4
      vertex 19.7654 46.8478 -5.4
    endloop
  endfacet
  facet normal 0 0 -1
    outer loop
      vertex 20.6629 46.1111 -5.4
      vertex 19 47 -5.4
      vertex 20.4142 46.4142 -5.4
    endloop
  endfacet
  facet normal 0 0 -1
    outer loop
      vertex 21 45 -5.4
      vertex 19 47 -5.4
      vertex 20.9616 45.3902 -5.4
    endloop
  endfacet
  facet normal 0 0 -1
    outer loop
      vertex 14.4089 11.8682 -5.4
      vertex 19 47 -5.4
      vertex 14.7407 12.0767 -5.4
    endloop
  endfacet
  facet normal 0 0 -1
    outer loop
      vertex -14.4089 11.8682 -5.4
      vertex 14.4089 11.8682 -5.4
      vertex 14.1318 11.5911 -5.4
    endloop
  endfacet
  facet normal 0 0 -1
    outer loop
      vertex -14.1318 11.5911 -5.4
      vertex 14.1318 11.5911 -5.4
      vertex 13.9233 11.2593 -5.4
    endloop
  endfacet
  facet normal 0 0 -1
    outer loop
      vertex -13.9233 11.2593 -5.4
      vertex 13.9233 11.2593 -5.4
      vertex 13.7939 10.8894 -5.4
    endloop
  endfacet
  facet normal 0 0 -1
    outer loop
      vertex -13.75 10.5 -5.4
      vertex 13.7939 10.8894 -5.4
      vertex 13.75 10.5 -5.4
    endloop
  endfacet
  facet normal 0 0 -1
    outer loop
      vertex -13.7939 10.8894 -5.4
      vertex 13.7939 10.8894 -5.4
      vertex -13.75 10.5 -5.4
    endloop
  endfacet
  facet normal 0 0 -1
    outer loop
      vertex -13.9233 11.2593 -5.4
      vertex 13.7939 10.8894 -5.4
      vertex -13.7939 10.8894 -5.4
    endloop
  endfacet
  facet normal 0 0 -1
    outer loop
      vertex 13.9233 11.2593 -5.4
      vertex -13.9233 11.2593 -5.4
      vertex -14.1318 11.5911 -5.4
    endloop
  endfacet
  facet normal 0 0 -1
    outer loop
      vertex 14.1318 11.5911 -5.4
      vertex -14.1318 11.5911 -5.4
      vertex -14.4089 11.8682 -5.4
    endloop
  endfacet
  facet normal 0 0 -1
    outer loop
      vertex 14.4089 11.8682 -5.4
      vertex -14.4089 11.8682 -5.4
      vertex 19 47 -5.4
    endloop
  endfacet
  facet normal 0 0 -1
    outer loop
      vertex -19 47 -5.4
      vertex -14.4089 11.8682 -5.4
      vertex -14.7407 12.0767 -5.4
    endloop
  endfacet
  facet normal 0 0 -1
    outer loop
      vertex -21 45 -5.4
      vertex -14.7407 12.0767 -5.4
      vertex -15.1106 12.2061 -5.4
    endloop
  endfacet
  facet normal 0 0 -1
    outer loop
      vertex -21 45 -5.4
      vertex -15.1106 12.2061 -5.4
      vertex -15.5 12.25 -5.4
    endloop
  endfacet
  facet normal 0 0 -1
    outer loop
      vertex -21 45 -5.4
      vertex -15.5 12.25 -5.4
      vertex -15.8894 12.2061 -5.4
    endloop
  endfacet
  facet normal 0 0 -1
    outer loop
      vertex -21 45 -5.4
      vertex -15.8894 12.2061 -5.4
      vertex -16.2593 12.0767 -5.4
    endloop
  endfacet
  facet normal 0 0 -1
    outer loop
      vertex -21 45 -5.4
      vertex -16.2593 12.0767 -5.4
      vertex -16.5911 11.8682 -5.4
    endloop
  endfacet
  facet normal -0 0 -1
    outer loop
      vertex -17.2061 10.1106 -5.4
      vertex -21 7 -5.4
      vertex -17.25 10.5 -5.4
    endloop
  endfacet
  facet normal 0 0 -1
    outer loop
      vertex -14.4089 11.8682 -5.4
      vertex -19 47 -5.4
      vertex 19 47 -5.4
    endloop
  endfacet
  facet normal 0 0 -1
    outer loop
      vertex -21 45 -5.4
      vertex -16.5911 11.8682 -5.4
      vertex -16.8682 11.5911 -5.4
    endloop
  endfacet
  facet normal 0 0 -1
    outer loop
      vertex -21 7 -5.4
      vertex -16.8682 11.5911 -5.4
      vertex -17.0767 11.2593 -5.4
    endloop
  endfacet
  facet normal 0 0 -1
    outer loop
      vertex -21 7 -5.4
      vertex -17.0767 11.2593 -5.4
      vertex -17.2061 10.8894 -5.4
    endloop
  endfacet
  facet normal -0 0 -1
    outer loop
      vertex -17.25 10.5 -5.4
      vertex -21 7 -5.4
      vertex -17.2061 10.8894 -5.4
    endloop
  endfacet
  facet normal 0 0 -1
    outer loop
      vertex -21 7 -5.4
      vertex -19 5 -5.4
      vertex -19.3902 5.03843 -5.4
    endloop
  endfacet
  facet normal -0 0 -1
    outer loop
      vertex -16.8682 11.5911 -5.4
      vertex -21 7 -5.4
      vertex -21 45 -5.4
    endloop
  endfacet
  facet normal 0 0 -1
    outer loop
      vertex -21 7 -5.4
      vertex -19.3902 5.03843 -5.4
      vertex -19.7654 5.15224 -5.4
    endloop
  endfacet
  facet normal 0 0 -1
    outer loop
      vertex -14.7407 12.0767 -5.4
      vertex -21 45 -5.4
      vertex -19 47 -5.4
    endloop
  endfacet
  facet normal 0 0 -1
    outer loop
      vertex -21 7 -5.4
      vertex -19.7654 5.15224 -5.4
      vertex -20.1111 5.33706 -5.4
    endloop
  endfacet
  facet normal 0 0 -1
    outer loop
      vertex -19 47 -5.4
      vertex -21 45 -5.4
      vertex -19.3902 46.9616 -5.4
    endloop
  endfacet
  facet normal 0 0 -1
    outer loop
      vertex -21 7 -5.4
      vertex -20.1111 5.33706 -5.4
      vertex -20.4142 5.58579 -5.4
    endloop
  endfacet
  facet normal 0 0 -1
    outer loop
      vertex -19.3902 46.9616 -5.4
      vertex -21 45 -5.4
      vertex -19.7654 46.8478 -5.4
    endloop
  endfacet
  facet normal 0 0 -1
    outer loop
      vertex -21 7 -5.4
      vertex -20.4142 5.58579 -5.4
      vertex -20.6629 5.88886 -5.4
    endloop
  endfacet
  facet normal 0 0 -1
    outer loop
      vertex -19.7654 46.8478 -5.4
      vertex -21 45 -5.4
      vertex -20.1111 46.6629 -5.4
    endloop
  endfacet
  facet normal 0 0 -1
    outer loop
      vertex -21 7 -5.4
      vertex -20.6629 5.88886 -5.4
      vertex -20.8478 6.23463 -5.4
    endloop
  endfacet
  facet normal 0 0 -1
    outer loop
      vertex -20.1111 46.6629 -5.4
      vertex -21 45 -5.4
      vertex -20.4142 46.4142 -5.4
    endloop
  endfacet
  facet normal 0 0 -1
    outer loop
      vertex -21 7 -5.4
      vertex -20.8478 6.23463 -5.4
      vertex -20.9616 6.60982 -5.4
    endloop
  endfacet
  facet normal 0 0 -1
    outer loop
      vertex -20.4142 46.4142 -5.4
      vertex -21 45 -5.4
      vertex -20.6629 46.1111 -5.4
    endloop
  endfacet
  facet normal 0 0 -1
    outer loop
      vertex -20.6629 46.1111 -5.4
      vertex -21 45 -5.4
      vertex -20.8478 45.7654 -5.4
    endloop
  endfacet
  facet normal 0 0 -1
    outer loop
      vertex -20.8478 45.7654 -5.4
      vertex -21 45 -5.4
      vertex -20.9616 45.3902 -5.4
    endloop
  endfacet
  facet normal -1 0 0
    outer loop
      vertex -21 7 -5.4
      vertex -21 45 0
      vertex -21 45 -5.4
    endloop
  endfacet
  facet normal -1 -0 0
    outer loop
      vertex -21 45 0
      vertex -21 7 -5.4
      vertex -21 7 0
    endloop
  endfacet
  facet normal -0.471475 -0.881879 0
    outer loop
      vertex -20.1111 5.33706 -5.4
      vertex -19.7654 5.15224 0
      vertex -20.1111 5.33706 0
    endloop
  endfacet
  facet normal -0.471475 -0.881879 -0
    outer loop
      vertex -19.7654 5.15224 0
      vertex -20.1111 5.33706 -5.4
      vertex -19.7654 5.15224 -5.4
    endloop
  endfacet
  facet normal -0.956951 0.290248 0
    outer loop
      vertex -20.9616 45.3902 -5.4
      vertex -20.8478 45.7654 0
      vertex -20.8478 45.7654 -5.4
    endloop
  endfacet
  facet normal -0.956951 0.290248 0
    outer loop
      vertex -20.8478 45.7654 0
      vertex -20.9616 45.3902 -5.4
      vertex -20.9616 45.3902 0
    endloop
  endfacet
  facet normal 0.773039 -0.634358 0
    outer loop
      vertex 20.4142 5.58579 0
      vertex 20.6629 5.88886 -5.4
      vertex 20.6629 5.88886 0
    endloop
  endfacet
  facet normal 0.773039 -0.634358 0
    outer loop
      vertex 20.6629 5.88886 -5.4
      vertex 20.4142 5.58579 0
      vertex 20.4142 5.58579 -5.4
    endloop
  endfacet
  facet normal -0.956949 -0.290255 0
    outer loop
      vertex -20.8478 6.23463 -5.4
      vertex -20.9616 6.60982 0
      vertex -20.9616 6.60982 -5.4
    endloop
  endfacet
  facet normal -0.956949 -0.290255 0
    outer loop
      vertex -20.9616 6.60982 0
      vertex -20.8478 6.23463 -5.4
      vertex -20.8478 6.23463 0
    endloop
  endfacet
  facet normal -0.995193 0.097938 0
    outer loop
      vertex -21 45 -5.4
      vertex -20.9616 45.3902 0
      vertex -20.9616 45.3902 -5.4
    endloop
  endfacet
  facet normal -0.995193 0.097938 0
    outer loop
      vertex -20.9616 45.3902 0
      vertex -21 45 -5.4
      vertex -21 45 0
    endloop
  endfacet
  facet normal 0 -1 0
    outer loop
      vertex -19 5 -5.4
      vertex 19 5 0
      vertex -19 5 0
    endloop
  endfacet
  facet normal 0 -1 -0
    outer loop
      vertex 19 5 0
      vertex -19 5 -5.4
      vertex 19 5 -5.4
    endloop
  endfacet
  facet normal -0.634321 0.77307 0
    outer loop
      vertex -20.1111 46.6629 -5.4
      vertex -20.4142 46.4142 0
      vertex -20.1111 46.6629 0
    endloop
  endfacet
  facet normal -0.634321 0.77307 0
    outer loop
      vertex -20.4142 46.4142 0
      vertex -20.1111 46.6629 -5.4
      vertex -20.4142 46.4142 -5.4
    endloop
  endfacet
  facet normal -0.881795 0.471634 0
    outer loop
      vertex -20.8478 45.7654 -5.4
      vertex -20.6629 46.1111 0
      vertex -20.6629 46.1111 -5.4
    endloop
  endfacet
  facet normal -0.881795 0.471634 0
    outer loop
      vertex -20.6629 46.1111 0
      vertex -20.8478 45.7654 -5.4
      vertex -20.8478 45.7654 0
    endloop
  endfacet
  facet normal 0 0 1
    outer loop
      vertex 19 47 0
      vertex 21 45 0
      vertex 20.9616 45.3902 0
    endloop
  endfacet
  facet normal 0 0 1
    outer loop
      vertex 21 45 0
      vertex 16.8682 11.5911 0
      vertex 21 7 0
    endloop
  endfacet
  facet normal 0 0 1
    outer loop
      vertex 19 47 0
      vertex 20.9616 45.3902 0
      vertex 20.8478 45.7654 0
    endloop
  endfacet
  facet normal -0 -0 1
    outer loop
      vertex 17.0767 11.2593 0
      vertex 21 7 0
      vertex 16.8682 11.5911 0
    endloop
  endfacet
  facet normal 0 0 1
    outer loop
      vertex 19 47 0
      vertex 20.8478 45.7654 0
      vertex 20.6629 46.1111 0
    endloop
  endfacet
  facet normal -0 -0 1
    outer loop
      vertex 17.25 10.5 0
      vertex 21 7 0
      vertex 17.2061 10.8894 0
    endloop
  endfacet
  facet normal 0 0 1
    outer loop
      vertex 19 47 0
      vertex 20.6629 46.1111 0
      vertex 20.4142 46.4142 0
    endloop
  endfacet
  facet normal -0 0 1
    outer loop
      vertex 17.2061 10.1106 0
      vertex 21 7 0
      vertex 17.25 10.5 0
    endloop
  endfacet
  facet normal 0 0 1
    outer loop
      vertex 19 47 0
      vertex 20.4142 46.4142 0
      vertex 20.1111 46.6629 0
    endloop
  endfacet
  facet normal -0 0 1
    outer loop
      vertex 17.0767 9.7407 0
      vertex 21 7 0
      vertex 17.2061 10.1106 0
    endloop
  endfacet
  facet normal 0 0 1
    outer loop
      vertex 19 47 0
      vertex 20.1111 46.6629 0
      vertex 19.7654 46.8478 0
    endloop
  endfacet
  facet normal -0 0 1
    outer loop
      vertex 16.8682 9.40889 0
      vertex 21 7 0
      vertex 17.0767 9.7407 0
    endloop
  endfacet
  facet normal 0 0 1
    outer loop
      vertex 19 47 0
      vertex 19.7654 46.8478 0
      vertex 19.3902 46.9616 0
    endloop
  endfacet
  facet normal 0 0 1
    outer loop
      vertex 21 7 0
      vertex 19 5 0
      vertex 20.9616 6.60982 0
    endloop
  endfacet
  facet normal 0 0 1
    outer loop
      vertex 21 45 0
      vertex 19 47 0
      vertex 14.7407 12.0767 0
    endloop
  endfacet
  facet normal 0 0 1
    outer loop
      vertex 20.9616 6.60982 0
      vertex 19 5 0
      vertex 20.8478 6.23463 0
    endloop
  endfacet
  facet normal 0 0 1
    outer loop
      vertex 20.8478 6.23463 0
      vertex 19 5 0
      vertex 20.6629 5.88886 0
    endloop
  endfacet
  facet normal 0 0 1
    outer loop
      vertex 20.6629 5.88886 0
      vertex 19 5 0
      vertex 20.4142 5.58579 0
    endloop
  endfacet
  facet normal 0 -0 1
    outer loop
      vertex 19 5 0
      vertex 21 7 0
      vertex 16.8682 9.40889 0
    endloop
  endfacet
  facet normal -0 -0 1
    outer loop
      vertex 17.2061 10.8894 0
      vertex 21 7 0
      vertex 17.0767 11.2593 0
    endloop
  endfacet
  facet normal 0 0 1
    outer loop
      vertex 21 45 0
      vertex 16.5911 11.8682 0
      vertex 16.8682 11.5911 0
    endloop
  endfacet
  facet normal 0 0 1
    outer loop
      vertex 21 45 0
      vertex 16.2593 12.0767 0
      vertex 16.5911 11.8682 0
    endloop
  endfacet
  facet normal 0 0 1
    outer loop
      vertex 21 45 0
      vertex 15.8894 12.2061 0
      vertex 16.2593 12.0767 0
    endloop
  endfacet
  facet normal 0 0 1
    outer loop
      vertex 21 45 0
      vertex 15.5 12.25 0
      vertex 15.8894 12.2061 0
    endloop
  endfacet
  facet normal 0 0 1
    outer loop
      vertex 21 45 0
      vertex 15.1106 12.2061 0
      vertex 15.5 12.25 0
    endloop
  endfacet
  facet normal 0 0 1
    outer loop
      vertex 21 45 0
      vertex 14.7407 12.0767 0
      vertex 15.1106 12.2061 0
    endloop
  endfacet
  facet normal 0 0 1
    outer loop
      vertex 19 47 0
      vertex 14.4089 11.8682 0
      vertex 14.7407 12.0767 0
    endloop
  endfacet
  facet normal 0 0 1
    outer loop
      vertex -14.4089 11.8682 0
      vertex 14.4089 11.8682 0
      vertex 19 47 0
    endloop
  endfacet
  facet normal 0 0 1
    outer loop
      vertex 14.4089 11.8682 0
      vertex -14.4089 11.8682 0
      vertex 14.1318 11.5911 0
    endloop
  endfacet
  facet normal 0 -0 1
    outer loop
      vertex -14.1318 11.5911 0
      vertex 14.1318 11.5911 0
      vertex -14.4089 11.8682 0
    endloop
  endfacet
  facet normal 0 0 1
    outer loop
      vertex 13.7939 10.8894 0
      vertex -13.75 10.5 0
      vertex 13.75 10.5 0
    endloop
  endfacet
  facet normal 0 0 1
    outer loop
      vertex 14.1318 11.5911 0
      vertex -14.1318 11.5911 0
      vertex 13.9233 11.2593 0
    endloop
  endfacet
  facet normal 0 0 1
    outer loop
      vertex 13.7939 10.8894 0
      vertex -13.7939 10.8894 0
      vertex -13.75 10.5 0
    endloop
  endfacet
  facet normal 0 0 1
    outer loop
      vertex 13.7939 10.8894 0
      vertex -13.9233 11.2593 0
      vertex -13.7939 10.8894 0
    endloop
  endfacet
  facet normal 0 0 1
    outer loop
      vertex 13.9233 11.2593 0
      vertex -13.9233 11.2593 0
      vertex 13.7939 10.8894 0
    endloop
  endfacet
  facet normal 0 -0 1
    outer loop
      vertex -13.9233 11.2593 0
      vertex 13.9233 11.2593 0
      vertex -14.1318 11.5911 0
    endloop
  endfacet
  facet normal -0 0 1
    outer loop
      vertex -19 47 0
      vertex -14.4089 11.8682 0
      vertex 19 47 0
    endloop
  endfacet
  facet normal 0 0 1
    outer loop
      vertex -14.4089 11.8682 0
      vertex -19 47 0
      vertex -14.7407 12.0767 0
    endloop
  endfacet
  facet normal -0 0 1
    outer loop
      vertex -21 45 0
      vertex -14.7407 12.0767 0
      vertex -19 47 0
    endloop
  endfacet
  facet normal 0 0 1
    outer loop
      vertex -14.7407 12.0767 0
      vertex -21 45 0
      vertex -15.1106 12.2061 0
    endloop
  endfacet
  facet normal 0 0 1
    outer loop
      vertex -15.1106 12.2061 0
      vertex -21 45 0
      vertex -15.5 12.25 0
    endloop
  endfacet
  facet normal 0 0 1
    outer loop
      vertex -15.5 12.25 0
      vertex -21 45 0
      vertex -15.8894 12.2061 0
    endloop
  endfacet
  facet normal 0 0 1
    outer loop
      vertex -16.8682 11.5911 0
      vertex -21 7 0
      vertex -17.0767 11.2593 0
    endloop
  endfacet
  facet normal 0 0 1
    outer loop
      vertex -21 7 0
      vertex -16.8682 11.5911 0
      vertex -21 45 0
    endloop
  endfacet
  facet normal 0 0 1
    outer loop
      vertex -16.5911 11.8682 0
      vertex -21 45 0
      vertex -16.8682 11.5911 0
    endloop
  endfacet
  facet normal 0 0 1
    outer loop
      vertex -16.2593 12.0767 0
      vertex -21 45 0
      vertex -16.5911 11.8682 0
    endloop
  endfacet
  facet normal 0 0 1
    outer loop
      vertex -15.8894 12.2061 0
      vertex -21 45 0
      vertex -16.2593 12.0767 0
    endloop
  endfacet
  facet normal 0 0 1
    outer loop
      vertex 20.4142 5.58579 0
      vertex 19 5 0
      vertex 20.1111 5.33706 0
    endloop
  endfacet
  facet normal 0 0 1
    outer loop
      vertex 20.1111 5.33706 0
      vertex 19 5 0
      vertex 19.7654 5.15224 0
    endloop
  endfacet
  facet normal 0 0 1
    outer loop
      vertex 19.7654 5.15224 0
      vertex 19 5 0
      vertex 19.3902 5.03843 0
    endloop
  endfacet
  facet normal -0 0 1
    outer loop
      vertex 16.5911 9.13179 0
      vertex 19 5 0
      vertex 16.8682 9.40889 0
    endloop
  endfacet
  facet normal -0 0 1
    outer loop
      vertex 16.2593 8.9233 0
      vertex 19 5 0
      vertex 16.5911 9.13179 0
    endloop
  endfacet
  facet normal -0 0 1
    outer loop
      vertex 15.8894 8.79388 0
      vertex 19 5 0
      vertex 16.2593 8.9233 0
    endloop
  endfacet
  facet normal -0 0 1
    outer loop
      vertex 15.5 8.75 0
      vertex 19 5 0
      vertex 15.8894 8.79388 0
    endloop
  endfacet
  facet normal 0 0 1
    outer loop
      vertex 15.1106 8.79388 0
      vertex 19 5 0
      vertex 15.5 8.75 0
    endloop
  endfacet
  facet normal 0 0 1
    outer loop
      vertex 14.7407 8.9233 0
      vertex 19 5 0
      vertex 15.1106 8.79388 0
    endloop
  endfacet
  facet normal 0 0 1
    outer loop
      vertex 14.4089 9.13179 0
      vertex 19 5 0
      vertex 14.7407 8.9233 0
    endloop
  endfacet
  facet normal -0 0 1
    outer loop
      vertex -13.75 10.5 0
      vertex 13.7939 10.1106 0
      vertex 13.75 10.5 0
    endloop
  endfacet
  facet normal 0 0 1
    outer loop
      vertex -13.7939 10.1106 0
      vertex 13.7939 10.1106 0
      vertex -13.75 10.5 0
    endloop
  endfacet
  facet normal 0 0 1
    outer loop
      vertex 13.7939 10.1106 0
      vertex -13.7939 10.1106 0
      vertex 13.9233 9.7407 0
    endloop
  endfacet
  facet normal 0 0 1
    outer loop
      vertex -13.9233 9.7407 0
      vertex 13.9233 9.7407 0
      vertex -13.7939 10.1106 0
    endloop
  endfacet
  facet normal 0 0 1
    outer loop
      vertex 13.9233 9.7407 0
      vertex -13.9233 9.7407 0
      vertex 14.1318 9.40889 0
    endloop
  endfacet
  facet normal 0 0 1
    outer loop
      vertex -14.1318 9.40889 0
      vertex 14.1318 9.40889 0
      vertex -13.9233 9.7407 0
    endloop
  endfacet
  facet normal 0 0 1
    outer loop
      vertex 14.1318 9.40889 0
      vertex -14.1318 9.40889 0
      vertex 14.4089 9.13179 0
    endloop
  endfacet
  facet normal 0 0 1
    outer loop
      vertex -14.4089 9.13179 0
      vertex 14.4089 9.13179 0
      vertex -14.1318 9.40889 0
    endloop
  endfacet
  facet normal 0 0 1
    outer loop
      vertex 14.4089 9.13179 0
      vertex -14.4089 9.13179 0
      vertex 19 5 0
    endloop
  endfacet
  facet normal 0 0 1
    outer loop
      vertex -19 5 0
      vertex -14.4089 9.13179 0
      vertex -14.7407 8.9233 0
    endloop
  endfacet
  facet normal 0 0 1
    outer loop
      vertex -19 5 0
      vertex -14.7407 8.9233 0
      vertex -15.1106 8.79388 0
    endloop
  endfacet
  facet normal 0 0 1
    outer loop
      vertex -19 5 0
      vertex -15.1106 8.79388 0
      vertex -15.5 8.75 0
    endloop
  endfacet
  facet normal 0 0 1
    outer loop
      vertex -14.4089 9.13179 0
      vertex -19 5 0
      vertex 19 5 0
    endloop
  endfacet
  facet normal 0 0 1
    outer loop
      vertex -15.8894 8.79388 0
      vertex -19 5 0
      vertex -15.5 8.75 0
    endloop
  endfacet
  facet normal 0 0 1
    outer loop
      vertex -16.2593 8.9233 0
      vertex -19 5 0
      vertex -15.8894 8.79388 0
    endloop
  endfacet
  facet normal 0 0 1
    outer loop
      vertex -16.5911 9.13179 0
      vertex -19 5 0
      vertex -16.2593 8.9233 0
    endloop
  endfacet
  facet normal 0 0 1
    outer loop
      vertex -16.8682 9.40889 0
      vertex -19 5 0
      vertex -16.5911 9.13179 0
    endloop
  endfacet
  facet normal 0 0 1
    outer loop
      vertex -21 7 0
      vertex -16.8682 9.40889 0
      vertex -17.0767 9.7407 0
    endloop
  endfacet
  facet normal 0 0 1
    outer loop
      vertex -21 7 0
      vertex -17.0767 9.7407 0
      vertex -17.2061 10.1106 0
    endloop
  endfacet
  facet normal 0 0 1
    outer loop
      vertex -21 7 0
      vertex -17.2061 10.1106 0
      vertex -17.25 10.5 0
    endloop
  endfacet
  facet normal 0 0 1
    outer loop
      vertex -17.0767 11.2593 0
      vertex -21 7 0
      vertex -17.2061 10.8894 0
    endloop
  endfacet
  facet normal 0 0 1
    outer loop
      vertex -21 45 0
      vertex -19 47 0
      vertex -19.3902 46.9616 0
    endloop
  endfacet
  facet normal 0 0 1
    outer loop
      vertex -17.2061 10.8894 0
      vertex -21 7 0
      vertex -17.25 10.5 0
    endloop
  endfacet
  facet normal 0 0 1
    outer loop
      vertex -21 45 0
      vertex -19.3902 46.9616 0
      vertex -19.7654 46.8478 0
    endloop
  endfacet
  facet normal 0 0 1
    outer loop
      vertex -16.8682 9.40889 0
      vertex -21 7 0
      vertex -19 5 0
    endloop
  endfacet
  facet normal 0 0 1
    outer loop
      vertex -21 45 0
      vertex -19.7654 46.8478 0
      vertex -20.1111 46.6629 0
    endloop
  endfacet
  facet normal 0 0 1
    outer loop
      vertex -19 5 0
      vertex -21 7 0
      vertex -19.3902 5.03843 0
    endloop
  endfacet
  facet normal 0 0 1
    outer loop
      vertex -21 45 0
      vertex -20.1111 46.6629 0
      vertex -20.4142 46.4142 0
    endloop
  endfacet
  facet normal 0 0 1
    outer loop
      vertex -19.3902 5.03843 0
      vertex -21 7 0
      vertex -19.7654 5.15224 0
    endloop
  endfacet
  facet normal 0 0 1
    outer loop
      vertex -21 45 0
      vertex -20.4142 46.4142 0
      vertex -20.6629 46.1111 0
    endloop
  endfacet
  facet normal 0 0 1
    outer loop
      vertex -19.7654 5.15224 0
      vertex -21 7 0
      vertex -20.1111 5.33706 0
    endloop
  endfacet
  facet normal 0 0 1
    outer loop
      vertex -21 45 0
      vertex -20.6629 46.1111 0
      vertex -20.8478 45.7654 0
    endloop
  endfacet
  facet normal 0 0 1
    outer loop
      vertex -20.1111 5.33706 0
      vertex -21 7 0
      vertex -20.4142 5.58579 0
    endloop
  endfacet
  facet normal 0 0 1
    outer loop
      vertex -21 45 0
      vertex -20.8478 45.7654 0
      vertex -20.9616 45.3902 0
    endloop
  endfacet
  facet normal 0 0 1
    outer loop
      vertex -20.4142 5.58579 0
      vertex -21 7 0
      vertex -20.6629 5.88886 0
    endloop
  endfacet
  facet normal 0 0 1
    outer loop
      vertex -20.6629 5.88886 0
      vertex -21 7 0
      vertex -20.8478 6.23463 0
    endloop
  endfacet
  facet normal 0 0 1
    outer loop
      vertex -20.8478 6.23463 0
      vertex -21 7 0
      vertex -20.9616 6.60982 0
    endloop
  endfacet
  facet normal -0.471634 0.881795 0
    outer loop
      vertex -19.7654 46.8478 -5.4
      vertex -20.1111 46.6629 0
      vertex -19.7654 46.8478 0
    endloop
  endfacet
  facet normal -0.471634 0.881795 0
    outer loop
      vertex -20.1111 46.6629 0
      vertex -19.7654 46.8478 -5.4
      vertex -20.1111 46.6629 -5.4
    endloop
  endfacet
  facet normal 0.995193 0.097938 0
    outer loop
      vertex 21 45 0
      vertex 20.9616 45.3902 -5.4
      vertex 20.9616 45.3902 0
    endloop
  endfacet
  facet normal 0.995193 0.097938 0
    outer loop
      vertex 20.9616 45.3902 -5.4
      vertex 21 45 0
      vertex 21 45 -5.4
    endloop
  endfacet
  facet normal 0.881795 0.471634 0
    outer loop
      vertex 20.8478 45.7654 0
      vertex 20.6629 46.1111 -5.4
      vertex 20.6629 46.1111 0
    endloop
  endfacet
  facet normal 0.881795 0.471634 0
    outer loop
      vertex 20.6629 46.1111 -5.4
      vertex 20.8478 45.7654 0
      vertex 20.8478 45.7654 -5.4
    endloop
  endfacet
  facet normal -0.634366 -0.773033 0
    outer loop
      vertex -20.4142 5.58579 -5.4
      vertex -20.1111 5.33706 0
      vertex -20.4142 5.58579 0
    endloop
  endfacet
  facet normal -0.634366 -0.773033 -0
    outer loop
      vertex -20.1111 5.33706 0
      vertex -20.4142 5.58579 -5.4
      vertex -20.1111 5.33706 -5.4
    endloop
  endfacet
  facet normal -0.77307 0.634321 0
    outer loop
      vertex -20.6629 46.1111 -5.4
      vertex -20.4142 46.4142 0
      vertex -20.4142 46.4142 -5.4
    endloop
  endfacet
  facet normal -0.77307 0.634321 0
    outer loop
      vertex -20.4142 46.4142 0
      vertex -20.6629 46.1111 -5.4
      vertex -20.6629 46.1111 0
    endloop
  endfacet
  facet normal 0.956951 0.290248 0
    outer loop
      vertex 20.9616 45.3902 0
      vertex 20.8478 45.7654 -5.4
      vertex 20.8478 45.7654 0
    endloop
  endfacet
  facet normal 0.956951 0.290248 0
    outer loop
      vertex 20.8478 45.7654 -5.4
      vertex 20.9616 45.3902 0
      vertex 20.9616 45.3902 -5.4
    endloop
  endfacet
  facet normal 1 -0 0
    outer loop
      vertex 21 7 0
      vertex 21 45 -5.4
      vertex 21 45 0
    endloop
  endfacet
  facet normal 1 0 0
    outer loop
      vertex 21 45 -5.4
      vertex 21 7 0
      vertex 21 7 -5.4
    endloop
  endfacet
  facet normal -0.290248 0.956951 0
    outer loop
      vertex -19.3902 46.9616 -5.4
      vertex -19.7654 46.8478 0
      vertex -19.3902 46.9616 0
    endloop
  endfacet
  facet normal -0.290248 0.956951 0
    outer loop
      vertex -19.7654 46.8478 0
      vertex -19.3902 46.9616 -5.4
      vertex -19.7654 46.8478 -5.4
    endloop
  endfacet
  facet normal -0.290271 -0.956944 0
    outer loop
      vertex -19.7654 5.15224 -5.4
      vertex -19.3902 5.03843 0
      vertex -19.7654 5.15224 0
    endloop
  endfacet
  facet normal -0.290271 -0.956944 -0
    outer loop
      vertex -19.3902 5.03843 0
      vertex -19.7654 5.15224 -5.4
      vertex -19.3902 5.03843 -5.4
    endloop
  endfacet
  facet normal 0.097938 0.995193 -0
    outer loop
      vertex 19.3902 46.9616 -5.4
      vertex 19 47 0
      vertex 19.3902 46.9616 0
    endloop
  endfacet
  facet normal 0.097938 0.995193 0
    outer loop
      vertex 19 47 0
      vertex 19.3902 46.9616 -5.4
      vertex 19 47 -5.4
    endloop
  endfacet
  facet normal 0.634321 0.77307 -0
    outer loop
      vertex 20.4142 46.4142 -5.4
      vertex 20.1111 46.6629 0
      vertex 20.4142 46.4142 0
    endloop
  endfacet
  facet normal 0.634321 0.77307 0
    outer loop
      vertex 20.1111 46.6629 0
      vertex 20.4142 46.4142 -5.4
      vertex 20.1111 46.6629 -5.4
    endloop
  endfacet
  facet normal -0.995192 -0.0979429 0
    outer loop
      vertex -20.9616 6.60982 -5.4
      vertex -21 7 0
      vertex -21 7 -5.4
    endloop
  endfacet
  facet normal -0.995192 -0.0979429 0
    outer loop
      vertex -21 7 0
      vertex -20.9616 6.60982 -5.4
      vertex -20.9616 6.60982 0
    endloop
  endfacet
  facet normal 0.0980137 -0.995185 0
    outer loop
      vertex 19 5 -5.4
      vertex 19.3902 5.03843 0
      vertex 19 5 0
    endloop
  endfacet
  facet normal 0.0980137 -0.995185 0
    outer loop
      vertex 19.3902 5.03843 0
      vertex 19 5 -5.4
      vertex 19.3902 5.03843 -5.4
    endloop
  endfacet
  facet normal 0.471634 0.881795 -0
    outer loop
      vertex 20.1111 46.6629 -5.4
      vertex 19.7654 46.8478 0
      vertex 20.1111 46.6629 0
    endloop
  endfacet
  facet normal 0.471634 0.881795 0
    outer loop
      vertex 19.7654 46.8478 0
      vertex 20.1111 46.6629 -5.4
      vertex 19.7654 46.8478 -5.4
    endloop
  endfacet
  facet normal 0.290248 0.956951 -0
    outer loop
      vertex 19.7654 46.8478 -5.4
      vertex 19.3902 46.9616 0
      vertex 19.7654 46.8478 0
    endloop
  endfacet
  facet normal 0.290248 0.956951 0
    outer loop
      vertex 19.3902 46.9616 0
      vertex 19.7654 46.8478 -5.4
      vertex 19.3902 46.9616 -5.4
    endloop
  endfacet
  facet normal -0.881834 -0.47156 0
    outer loop
      vertex -20.6629 5.88886 -5.4
      vertex -20.8478 6.23463 0
      vertex -20.8478 6.23463 -5.4
    endloop
  endfacet
  facet normal -0.881834 -0.47156 0
    outer loop
      vertex -20.8478 6.23463 0
      vertex -20.6629 5.88886 -5.4
      vertex -20.6629 5.88886 0
    endloop
  endfacet
  facet normal -0.097938 0.995193 0
    outer loop
      vertex -19 47 -5.4
      vertex -19.3902 46.9616 0
      vertex -19 47 0
    endloop
  endfacet
  facet normal -0.097938 0.995193 0
    outer loop
      vertex -19.3902 46.9616 0
      vertex -19 47 -5.4
      vertex -19.3902 46.9616 -5.4
    endloop
  endfacet
  facet normal 0.471475 -0.881879 0
    outer loop
      vertex 19.7654 5.15224 -5.4
      vertex 20.1111 5.33706 0
      vertex 19.7654 5.15224 0
    endloop
  endfacet
  facet normal 0.471475 -0.881879 0
    outer loop
      vertex 20.1111 5.33706 0
      vertex 19.7654 5.15224 -5.4
      vertex 20.1111 5.33706 -5.4
    endloop
  endfacet
  facet normal -0.0980137 -0.995185 0
    outer loop
      vertex -19.3902 5.03843 -5.4
      vertex -19 5 0
      vertex -19.3902 5.03843 0
    endloop
  endfacet
  facet normal -0.0980137 -0.995185 -0
    outer loop
      vertex -19 5 0
      vertex -19.3902 5.03843 -5.4
      vertex -19 5 -5.4
    endloop
  endfacet
  facet normal 0.634366 -0.773033 0
    outer loop
      vertex 20.1111 5.33706 -5.4
      vertex 20.4142 5.58579 0
      vertex 20.1111 5.33706 0
    endloop
  endfacet
  facet normal 0.634366 -0.773033 0
    outer loop
      vertex 20.4142 5.58579 0
      vertex 20.1111 5.33706 -5.4
      vertex 20.4142 5.58579 -5.4
    endloop
  endfacet
  facet normal 0.881834 -0.47156 0
    outer loop
      vertex 20.6629 5.88886 0
      vertex 20.8478 6.23463 -5.4
      vertex 20.8478 6.23463 0
    endloop
  endfacet
  facet normal 0.881834 -0.47156 0
    outer loop
      vertex 20.8478 6.23463 -5.4
      vertex 20.6629 5.88886 0
      vertex 20.6629 5.88886 -5.4
    endloop
  endfacet
  facet normal -0.773039 -0.634358 0
    outer loop
      vertex -20.4142 5.58579 -5.4
      vertex -20.6629 5.88886 0
      vertex -20.6629 5.88886 -5.4
    endloop
  endfacet
  facet normal -0.773039 -0.634358 0
    outer loop
      vertex -20.6629 5.88886 0
      vertex -20.4142 5.58579 -5.4
      vertex -20.4142 5.58579 0
    endloop
  endfacet
  facet normal 0.956949 -0.290255 0
    outer loop
      vertex 20.8478 6.23463 0
      vertex 20.9616 6.60982 -5.4
      vertex 20.9616 6.60982 0
    endloop
  endfacet
  facet normal 0.956949 -0.290255 0
    outer loop
      vertex 20.9616 6.60982 -5.4
      vertex 20.8478 6.23463 0
      vertex 20.8478 6.23463 -5.4
    endloop
  endfacet
  facet normal 0.995192 -0.0979429 0
    outer loop
      vertex 20.9616 6.60982 0
      vertex 21 7 -5.4
      vertex 21 7 0
    endloop
  endfacet
  facet normal 0.995192 -0.0979429 0
    outer loop
      vertex 21 7 -5.4
      vertex 20.9616 6.60982 0
      vertex 20.9616 6.60982 -5.4
    endloop
  endfacet
  facet normal -0.94391 -0.330203 0
    outer loop
      vertex -13.7939 10.8894 -5.4
      vertex -13.9233 11.2593 0
      vertex -13.9233 11.2593 -5.4
    endloop
  endfacet
  facet normal -0.94391 -0.330203 0
    outer loop
      vertex -13.9233 11.2593 0
      vertex -13.7939 10.8894 -5.4
      vertex -13.7939 10.8894 0
    endloop
  endfacet
  facet normal 0.846713 0.53205 0
    outer loop
      vertex -16.8682 9.40889 0
      vertex -17.0767 9.7407 -5.4
      vertex -17.0767 9.7407 0
    endloop
  endfacet
  facet normal 0.846713 0.53205 0
    outer loop
      vertex -17.0767 9.7407 -5.4
      vertex -16.8682 9.40889 0
      vertex -16.8682 9.40889 -5.4
    endloop
  endfacet
  facet normal -0.993705 0.112028 0
    outer loop
      vertex -13.7939 10.1106 -5.4
      vertex -13.75 10.5 0
      vertex -13.75 10.5 -5.4
    endloop
  endfacet
  facet normal -0.993705 0.112028 0
    outer loop
      vertex -13.75 10.5 0
      vertex -13.7939 10.1106 -5.4
      vertex -13.7939 10.1106 0
    endloop
  endfacet
  facet normal 0.707107 -0.707107 0
    outer loop
      vertex -16.8682 11.5911 -5.4
      vertex -16.5911 11.8682 0
      vertex -16.8682 11.5911 0
    endloop
  endfacet
  facet normal 0.707107 -0.707107 0
    outer loop
      vertex -16.5911 11.8682 0
      vertex -16.8682 11.5911 -5.4
      vertex -16.5911 11.8682 -5.4
    endloop
  endfacet
  facet normal -0.993705 -0.112028 0
    outer loop
      vertex -13.75 10.5 -5.4
      vertex -13.7939 10.8894 0
      vertex -13.7939 10.8894 -5.4
    endloop
  endfacet
  facet normal -0.993705 -0.112028 0
    outer loop
      vertex -13.7939 10.8894 0
      vertex -13.75 10.5 -5.4
      vertex -13.75 10.5 0
    endloop
  endfacet
  facet normal -0.846706 -0.532062 0
    outer loop
      vertex -13.9233 11.2593 -5.4
      vertex -14.1318 11.5911 0
      vertex -14.1318 11.5911 -5.4
    endloop
  endfacet
  facet normal -0.846706 -0.532062 0
    outer loop
      vertex -14.1318 11.5911 0
      vertex -13.9233 11.2593 -5.4
      vertex -13.9233 11.2593 0
    endloop
  endfacet
  facet normal 0.993705 -0.112028 0
    outer loop
      vertex -17.25 10.5 0
      vertex -17.2061 10.8894 -5.4
      vertex -17.2061 10.8894 0
    endloop
  endfacet
  facet normal 0.993705 -0.112028 0
    outer loop
      vertex -17.2061 10.8894 -5.4
      vertex -17.25 10.5 0
      vertex -17.25 10.5 -5.4
    endloop
  endfacet
  facet normal -0.111977 0.993711 0
    outer loop
      vertex -15.1106 8.79388 -5.4
      vertex -15.5 8.75 0
      vertex -15.1106 8.79388 0
    endloop
  endfacet
  facet normal -0.111977 0.993711 0
    outer loop
      vertex -15.5 8.75 0
      vertex -15.1106 8.79388 -5.4
      vertex -15.5 8.75 -5.4
    endloop
  endfacet
  facet normal 0.993705 0.112028 0
    outer loop
      vertex -17.2061 10.1106 0
      vertex -17.25 10.5 -5.4
      vertex -17.25 10.5 0
    endloop
  endfacet
  facet normal 0.993705 0.112028 0
    outer loop
      vertex -17.25 10.5 -5.4
      vertex -17.2061 10.1106 0
      vertex -17.2061 10.1106 -5.4
    endloop
  endfacet
  facet normal -0.330248 0.943894 0
    outer loop
      vertex -14.7407 8.9233 -5.4
      vertex -15.1106 8.79388 0
      vertex -14.7407 8.9233 0
    endloop
  endfacet
  facet normal -0.330248 0.943894 0
    outer loop
      vertex -15.1106 8.79388 0
      vertex -14.7407 8.9233 -5.4
      vertex -15.1106 8.79388 -5.4
    endloop
  endfacet
  facet normal 0.532062 -0.846706 0
    outer loop
      vertex -16.5911 11.8682 -5.4
      vertex -16.2593 12.0767 0
      vertex -16.5911 11.8682 0
    endloop
  endfacet
  facet normal 0.532062 -0.846706 0
    outer loop
      vertex -16.2593 12.0767 0
      vertex -16.5911 11.8682 -5.4
      vertex -16.2593 12.0767 -5.4
    endloop
  endfacet
  facet normal -0.532062 -0.846706 0
    outer loop
      vertex -14.7407 12.0767 -5.4
      vertex -14.4089 11.8682 0
      vertex -14.7407 12.0767 0
    endloop
  endfacet
  facet normal -0.532062 -0.846706 -0
    outer loop
      vertex -14.4089 11.8682 0
      vertex -14.7407 12.0767 -5.4
      vertex -14.4089 11.8682 -5.4
    endloop
  endfacet
  facet normal -0.707107 -0.707107 0
    outer loop
      vertex -14.1318 11.5911 -5.4
      vertex -14.4089 11.8682 0
      vertex -14.4089 11.8682 -5.4
    endloop
  endfacet
  facet normal -0.707107 -0.707107 0
    outer loop
      vertex -14.4089 11.8682 0
      vertex -14.1318 11.5911 -5.4
      vertex -14.1318 11.5911 0
    endloop
  endfacet
  facet normal -0.532043 0.846717 0
    outer loop
      vertex -14.4089 9.13179 -5.4
      vertex -14.7407 8.9233 0
      vertex -14.4089 9.13179 0
    endloop
  endfacet
  facet normal -0.532043 0.846717 0
    outer loop
      vertex -14.7407 8.9233 0
      vertex -14.4089 9.13179 -5.4
      vertex -14.7407 8.9233 -5.4
    endloop
  endfacet
  facet normal -0.112028 -0.993705 0
    outer loop
      vertex -15.5 12.25 -5.4
      vertex -15.1106 12.2061 0
      vertex -15.5 12.25 0
    endloop
  endfacet
  facet normal -0.112028 -0.993705 -0
    outer loop
      vertex -15.1106 12.2061 0
      vertex -15.5 12.25 -5.4
      vertex -15.1106 12.2061 -5.4
    endloop
  endfacet
  facet normal 0.707107 0.707107 -0
    outer loop
      vertex -16.5911 9.13179 -5.4
      vertex -16.8682 9.40889 0
      vertex -16.5911 9.13179 0
    endloop
  endfacet
  facet normal 0.707107 0.707107 0
    outer loop
      vertex -16.8682 9.40889 0
      vertex -16.5911 9.13179 -5.4
      vertex -16.8682 9.40889 -5.4
    endloop
  endfacet
  facet normal 0.94391 -0.330203 0
    outer loop
      vertex -17.2061 10.8894 0
      vertex -17.0767 11.2593 -5.4
      vertex -17.0767 11.2593 0
    endloop
  endfacet
  facet normal 0.94391 -0.330203 0
    outer loop
      vertex -17.0767 11.2593 -5.4
      vertex -17.2061 10.8894 0
      vertex -17.2061 10.8894 -5.4
    endloop
  endfacet
  facet normal -0.94391 0.330203 0
    outer loop
      vertex -13.9233 9.7407 -5.4
      vertex -13.7939 10.1106 0
      vertex -13.7939 10.1106 -5.4
    endloop
  endfacet
  facet normal -0.94391 0.330203 0
    outer loop
      vertex -13.7939 10.1106 0
      vertex -13.9233 9.7407 -5.4
      vertex -13.9233 9.7407 0
    endloop
  endfacet
  facet normal 0.112028 -0.993705 0
    outer loop
      vertex -15.8894 12.2061 -5.4
      vertex -15.5 12.25 0
      vertex -15.8894 12.2061 0
    endloop
  endfacet
  facet normal 0.112028 -0.993705 0
    outer loop
      vertex -15.5 12.25 0
      vertex -15.8894 12.2061 -5.4
      vertex -15.5 12.25 -5.4
    endloop
  endfacet
  facet normal 0.330248 0.943894 -0
    outer loop
      vertex -15.8894 8.79388 -5.4
      vertex -16.2593 8.9233 0
      vertex -15.8894 8.79388 0
    endloop
  endfacet
  facet normal 0.330248 0.943894 0
    outer loop
      vertex -16.2593 8.9233 0
      vertex -15.8894 8.79388 -5.4
      vertex -16.2593 8.9233 -5.4
    endloop
  endfacet
  facet normal -0.330203 -0.94391 0
    outer loop
      vertex -15.1106 12.2061 -5.4
      vertex -14.7407 12.0767 0
      vertex -15.1106 12.2061 0
    endloop
  endfacet
  facet normal -0.330203 -0.94391 -0
    outer loop
      vertex -14.7407 12.0767 0
      vertex -15.1106 12.2061 -5.4
      vertex -14.7407 12.0767 -5.4
    endloop
  endfacet
  facet normal -0.707107 0.707107 0
    outer loop
      vertex -14.4089 9.13179 -5.4
      vertex -14.1318 9.40889 0
      vertex -14.1318 9.40889 -5.4
    endloop
  endfacet
  facet normal -0.707107 0.707107 0
    outer loop
      vertex -14.1318 9.40889 0
      vertex -14.4089 9.13179 -5.4
      vertex -14.4089 9.13179 0
    endloop
  endfacet
  facet normal 0.532043 0.846717 -0
    outer loop
      vertex -16.2593 8.9233 -5.4
      vertex -16.5911 9.13179 0
      vertex -16.2593 8.9233 0
    endloop
  endfacet
  facet normal 0.532043 0.846717 0
    outer loop
      vertex -16.5911 9.13179 0
      vertex -16.2593 8.9233 -5.4
      vertex -16.5911 9.13179 -5.4
    endloop
  endfacet
  facet normal 0.330203 -0.94391 0
    outer loop
      vertex -16.2593 12.0767 -5.4
      vertex -15.8894 12.2061 0
      vertex -16.2593 12.0767 0
    endloop
  endfacet
  facet normal 0.330203 -0.94391 0
    outer loop
      vertex -15.8894 12.2061 0
      vertex -16.2593 12.0767 -5.4
      vertex -15.8894 12.2061 -5.4
    endloop
  endfacet
  facet normal 0.111977 0.993711 -0
    outer loop
      vertex -15.5 8.75 -5.4
      vertex -15.8894 8.79388 0
      vertex -15.5 8.75 0
    endloop
  endfacet
  facet normal 0.111977 0.993711 0
    outer loop
      vertex -15.8894 8.79388 0
      vertex -15.5 8.75 -5.4
      vertex -15.8894 8.79388 -5.4
    endloop
  endfacet
  facet normal 0.846706 -0.532062 0
    outer loop
      vertex -17.0767 11.2593 0
      vertex -16.8682 11.5911 -5.4
      vertex -16.8682 11.5911 0
    endloop
  endfacet
  facet normal 0.846706 -0.532062 0
    outer loop
      vertex -16.8682 11.5911 -5.4
      vertex -17.0767 11.2593 0
      vertex -17.0767 11.2593 -5.4
    endloop
  endfacet
  facet normal -0.846713 0.53205 0
    outer loop
      vertex -14.1318 9.40889 -5.4
      vertex -13.9233 9.7407 0
      vertex -13.9233 9.7407 -5.4
    endloop
  endfacet
  facet normal -0.846713 0.53205 0
    outer loop
      vertex -13.9233 9.7407 0
      vertex -14.1318 9.40889 -5.4
      vertex -14.1318 9.40889 0
    endloop
  endfacet
  facet normal 0.94391 0.330203 0
    outer loop
      vertex -17.0767 9.7407 0
      vertex -17.2061 10.1106 -5.4
      vertex -17.2061 10.1106 0
    endloop
  endfacet
  facet normal 0.94391 0.330203 0
    outer loop
      vertex -17.2061 10.1106 -5.4
      vertex -17.0767 9.7407 0
      vertex -17.0767 9.7407 -5.4
    endloop
  endfacet
  facet normal -0.993705 -0.112028 0
    outer loop
      vertex 17.25 10.5 -5.4
      vertex 17.2061 10.8894 0
      vertex 17.2061 10.8894 -5.4
    endloop
  endfacet
  facet normal -0.993705 -0.112028 0
    outer loop
      vertex 17.2061 10.8894 0
      vertex 17.25 10.5 -5.4
      vertex 17.25 10.5 0
    endloop
  endfacet
  facet normal -0.94391 -0.330203 0
    outer loop
      vertex 17.2061 10.8894 -5.4
      vertex 17.0767 11.2593 0
      vertex 17.0767 11.2593 -5.4
    endloop
  endfacet
  facet normal -0.94391 -0.330203 0
    outer loop
      vertex 17.0767 11.2593 0
      vertex 17.2061 10.8894 -5.4
      vertex 17.2061 10.8894 0
    endloop
  endfacet
  facet normal -0.532043 0.846717 0
    outer loop
      vertex 16.5911 9.13179 -5.4
      vertex 16.2593 8.9233 0
      vertex 16.5911 9.13179 0
    endloop
  endfacet
  facet normal -0.532043 0.846717 0
    outer loop
      vertex 16.2593 8.9233 0
      vertex 16.5911 9.13179 -5.4
      vertex 16.2593 8.9233 -5.4
    endloop
  endfacet
  facet normal -0.993705 0.112028 0
    outer loop
      vertex 17.2061 10.1106 -5.4
      vertex 17.25 10.5 0
      vertex 17.25 10.5 -5.4
    endloop
  endfacet
  facet normal -0.993705 0.112028 0
    outer loop
      vertex 17.25 10.5 0
      vertex 17.2061 10.1106 -5.4
      vertex 17.2061 10.1106 0
    endloop
  endfacet
  facet normal -0.94391 0.330203 0
    outer loop
      vertex 17.0767 9.7407 -5.4
      vertex 17.2061 10.1106 0
      vertex 17.2061 10.1106 -5.4
    endloop
  endfacet
  facet normal -0.94391 0.330203 0
    outer loop
      vertex 17.2061 10.1106 0
      vertex 17.0767 9.7407 -5.4
      vertex 17.0767 9.7407 0
    endloop
  endfacet
  facet normal 0.111977 0.993711 -0
    outer loop
      vertex 15.5 8.75 -5.4
      vertex 15.1106 8.79388 0
      vertex 15.5 8.75 0
    endloop
  endfacet
  facet normal 0.111977 0.993711 0
    outer loop
      vertex 15.1106 8.79388 0
      vertex 15.5 8.75 -5.4
      vertex 15.1106 8.79388 -5.4
    endloop
  endfacet
  facet normal -0.330248 0.943894 0
    outer loop
      vertex 16.2593 8.9233 -5.4
      vertex 15.8894 8.79388 0
      vertex 16.2593 8.9233 0
    endloop
  endfacet
  facet normal -0.330248 0.943894 0
    outer loop
      vertex 15.8894 8.79388 0
      vertex 16.2593 8.9233 -5.4
      vertex 15.8894 8.79388 -5.4
    endloop
  endfacet
  facet normal 0.330203 -0.94391 0
    outer loop
      vertex 14.7407 12.0767 -5.4
      vertex 15.1106 12.2061 0
      vertex 14.7407 12.0767 0
    endloop
  endfacet
  facet normal 0.330203 -0.94391 0
    outer loop
      vertex 15.1106 12.2061 0
      vertex 14.7407 12.0767 -5.4
      vertex 15.1106 12.2061 -5.4
    endloop
  endfacet
  facet normal -0.846706 -0.532062 0
    outer loop
      vertex 17.0767 11.2593 -5.4
      vertex 16.8682 11.5911 0
      vertex 16.8682 11.5911 -5.4
    endloop
  endfacet
  facet normal -0.846706 -0.532062 0
    outer loop
      vertex 16.8682 11.5911 0
      vertex 17.0767 11.2593 -5.4
      vertex 17.0767 11.2593 0
    endloop
  endfacet
  facet normal -0.846713 0.53205 0
    outer loop
      vertex 16.8682 9.40889 -5.4
      vertex 17.0767 9.7407 0
      vertex 17.0767 9.7407 -5.4
    endloop
  endfacet
  facet normal -0.846713 0.53205 0
    outer loop
      vertex 17.0767 9.7407 0
      vertex 16.8682 9.40889 -5.4
      vertex 16.8682 9.40889 0
    endloop
  endfacet
  facet normal -0.112028 -0.993705 0
    outer loop
      vertex 15.5 12.25 -5.4
      vertex 15.8894 12.2061 0
      vertex 15.5 12.25 0
    endloop
  endfacet
  facet normal -0.112028 -0.993705 -0
    outer loop
      vertex 15.8894 12.2061 0
      vertex 15.5 12.25 -5.4
      vertex 15.8894 12.2061 -5.4
    endloop
  endfacet
  facet normal 0.330248 0.943894 -0
    outer loop
      vertex 15.1106 8.79388 -5.4
      vertex 14.7407 8.9233 0
      vertex 15.1106 8.79388 0
    endloop
  endfacet
  facet normal 0.330248 0.943894 0
    outer loop
      vertex 14.7407 8.9233 0
      vertex 15.1106 8.79388 -5.4
      vertex 14.7407 8.9233 -5.4
    endloop
  endfacet
  facet normal 0.112028 -0.993705 0
    outer loop
      vertex 15.1106 12.2061 -5.4
      vertex 15.5 12.25 0
      vertex 15.1106 12.2061 0
    endloop
  endfacet
  facet normal 0.112028 -0.993705 0
    outer loop
      vertex 15.5 12.25 0
      vertex 15.1106 12.2061 -5.4
      vertex 15.5 12.25 -5.4
    endloop
  endfacet
  facet normal 0.532062 -0.846706 0
    outer loop
      vertex 14.4089 11.8682 -5.4
      vertex 14.7407 12.0767 0
      vertex 14.4089 11.8682 0
    endloop
  endfacet
  facet normal 0.532062 -0.846706 0
    outer loop
      vertex 14.7407 12.0767 0
      vertex 14.4089 11.8682 -5.4
      vertex 14.7407 12.0767 -5.4
    endloop
  endfacet
  facet normal -0.330203 -0.94391 0
    outer loop
      vertex 15.8894 12.2061 -5.4
      vertex 16.2593 12.0767 0
      vertex 15.8894 12.2061 0
    endloop
  endfacet
  facet normal -0.330203 -0.94391 -0
    outer loop
      vertex 16.2593 12.0767 0
      vertex 15.8894 12.2061 -5.4
      vertex 16.2593 12.0767 -5.4
    endloop
  endfacet
  facet normal -0.111977 0.993711 0
    outer loop
      vertex 15.8894 8.79388 -5.4
      vertex 15.5 8.75 0
      vertex 15.8894 8.79388 0
    endloop
  endfacet
  facet normal -0.111977 0.993711 0
    outer loop
      vertex 15.5 8.75 0
      vertex 15.8894 8.79388 -5.4
      vertex 15.5 8.75 -5.4
    endloop
  endfacet
  facet normal 0.94391 -0.330203 0
    outer loop
      vertex 13.7939 10.8894 0
      vertex 13.9233 11.2593 -5.4
      vertex 13.9233 11.2593 0
    endloop
  endfacet
  facet normal 0.94391 -0.330203 0
    outer loop
      vertex 13.9233 11.2593 -5.4
      vertex 13.7939 10.8894 0
      vertex 13.7939 10.8894 -5.4
    endloop
  endfacet
  facet normal -0.707107 0.707107 0
    outer loop
      vertex 16.8682 9.40889 -5.4
      vertex 16.5911 9.13179 0
      vertex 16.8682 9.40889 0
    endloop
  endfacet
  facet normal -0.707107 0.707107 0
    outer loop
      vertex 16.5911 9.13179 0
      vertex 16.8682 9.40889 -5.4
      vertex 16.5911 9.13179 -5.4
    endloop
  endfacet
  facet normal -0.532062 -0.846706 0
    outer loop
      vertex 16.2593 12.0767 -5.4
      vertex 16.5911 11.8682 0
      vertex 16.2593 12.0767 0
    endloop
  endfacet
  facet normal -0.532062 -0.846706 -0
    outer loop
      vertex 16.5911 11.8682 0
      vertex 16.2593 12.0767 -5.4
      vertex 16.5911 11.8682 -5.4
    endloop
  endfacet
  facet normal -0.707107 -0.707107 0
    outer loop
      vertex 16.5911 11.8682 -5.4
      vertex 16.8682 11.5911 0
      vertex 16.5911 11.8682 0
    endloop
  endfacet
  facet normal -0.707107 -0.707107 -0
    outer loop
      vertex 16.8682 11.5911 0
      vertex 16.5911 11.8682 -5.4
      vertex 16.8682 11.5911 -5.4
    endloop
  endfacet
  facet normal 0.94391 0.330203 0
    outer loop
      vertex 13.9233 9.7407 0
      vertex 13.7939 10.1106 -5.4
      vertex 13.7939 10.1106 0
    endloop
  endfacet
  facet normal 0.94391 0.330203 0
    outer loop
      vertex 13.7939 10.1106 -5.4
      vertex 13.9233 9.7407 0
      vertex 13.9233 9.7407 -5.4
    endloop
  endfacet
  facet normal 0.707107 -0.707107 0
    outer loop
      vertex 14.1318 11.5911 0
      vertex 14.4089 11.8682 -5.4
      vertex 14.4089 11.8682 0
    endloop
  endfacet
  facet normal 0.707107 -0.707107 0
    outer loop
      vertex 14.4089 11.8682 -5.4
      vertex 14.1318 11.5911 0
      vertex 14.1318 11.5911 -5.4
    endloop
  endfacet
  facet normal 0.993705 -0.112028 0
    outer loop
      vertex 13.75 10.5 0
      vertex 13.7939 10.8894 -5.4
      vertex 13.7939 10.8894 0
    endloop
  endfacet
  facet normal 0.993705 -0.112028 0
    outer loop
      vertex 13.7939 10.8894 -5.4
      vertex 13.75 10.5 0
      vertex 13.75 10.5 -5.4
    endloop
  endfacet
  facet normal 0.846706 -0.532062 0
    outer loop
      vertex 13.9233 11.2593 0
      vertex 14.1318 11.5911 -5.4
      vertex 14.1318 11.5911 0
    endloop
  endfacet
  facet normal 0.846706 -0.532062 0
    outer loop
      vertex 14.1318 11.5911 -5.4
      vertex 13.9233 11.2593 0
      vertex 13.9233 11.2593 -5.4
    endloop
  endfacet
  facet normal 0.993705 0.112028 0
    outer loop
      vertex 13.7939 10.1106 0
      vertex 13.75 10.5 -5.4
      vertex 13.75 10.5 0
    endloop
  endfacet
  facet normal 0.993705 0.112028 0
    outer loop
      vertex 13.75 10.5 -5.4
      vertex 13.7939 10.1106 0
      vertex 13.7939 10.1106 -5.4
    endloop
  endfacet
  facet normal 0.707107 0.707107 0
    outer loop
      vertex 14.4089 9.13179 0
      vertex 14.1318 9.40889 -5.4
      vertex 14.1318 9.40889 0
    endloop
  endfacet
  facet normal 0.707107 0.707107 0
    outer loop
      vertex 14.1318 9.40889 -5.4
      vertex 14.4089 9.13179 0
      vertex 14.4089 9.13179 -5.4
    endloop
  endfacet
  facet normal 0.532043 0.846717 -0
    outer loop
      vertex 14.7407 8.9233 -5.4
      vertex 14.4089 9.13179 0
      vertex 14.7407 8.9233 0
    endloop
  endfacet
  facet normal 0.532043 0.846717 0
    outer loop
      vertex 14.4089 9.13179 0
      vertex 14.7407 8.9233 -5.4
      vertex 14.4089 9.13179 -5.4
    endloop
  endfacet
  facet normal 0.846713 0.53205 0
    outer loop
      vertex 14.1318 9.40889 0
      vertex 13.9233 9.7407 -5.4
      vertex 13.9233 9.7407 0
    endloop
  endfacet
  facet normal 0.846713 0.53205 0
    outer loop
      vertex 13.9233 9.7407 -5.4
      vertex 14.1318 9.40889 0
      vertex 14.1318 9.40889 -5.4
    endloop
  endfacet
endsolid OpenSCAD_Model
